<svg class="svg-icon" style="width: 1em; height: 1em;vertical-align: middle;fill: currentColor;overflow: hidden;" viewBox="0 0 1024 1024" version="1.1" xmlns="http://www.w3.org/2000/svg"><path d="M717.143729 495.806179c-29.860075-27.79402-26.76048-81.59639-26.76048-81.59639l8.92016-108.763123c-11.704576-33.803897-53.520961-18.154475-53.520961-18.154475l-80.281441 163.193803L422.80812 450.485994l-89.202625-163.193803c-46.885843-15.867386-44.600801 36.276205-44.600801 36.276205 6.478552 27.230178 8.92016 108.764146 8.92016 108.764146-0.25071 40.656979-26.761504 63.47466-26.761504 63.47466-58.278311 73.865311-62.409398 154.052608-62.409398 154.052608C184.966177 849.297073 342.525656 930.860716 342.525656 930.860716c85.007069 51.331086 115.963105 0 115.963105 0 5.477758-32.895201-8.921183-45.320185-8.921183-45.320185C317.893652 837.529051 315.765175 731.456201 315.765175 731.456201 311.4458 535.681352 485.248218 532.050662 485.248218 532.050662c158.874427-1.064238 187.29164 126.885875 187.29164 126.885875 16.246009 163.974585-89.201601 208.483288-89.201601 208.483288-35.398208 10.108219-44.599777 27.197432-44.599777 27.197432-26.823925 67.51365 35.681664 63.443961 35.681664 63.443961 179.278129-51.800783 205.131961-208.483288 205.131961-208.483288C809.035602 573.552891 717.143729 495.806179 717.143729 495.806179L717.143729 495.806179zM538.739503 414.20979l71.361281-117.840872-53.521984-72.519664L431.727257 223.849254l-53.519937 63.442938 71.360258 126.917598L538.739503 414.20979 538.739503 414.20979zM601.1796 178.559768c0 0 0.218988-56.900941 62.442144-54.397934 0 0-47.761794-13.70821-62.442144-63.473637 0 0-8.66945 54.773488-62.441121 54.396911C538.739503 115.085108 594.01134 119.029954 601.1796 178.559768L601.1796 178.559768zM649.161405 205.602681c-2.128477 0-3.37998 0.124843-3.37998 0.124843C646.938784 205.696826 648.065444 205.665103 649.161405 205.602681L649.161405 205.602681zM726.062865 124.162858c0 0 4.007267 76.933183-76.901461 81.439824 14.304797-0.188288 69.421092 4.319375 76.901461 81.689511 0 0-3.505847-83.067904 89.171925-81.564667C815.234791 205.727525 733.888088 199.782116 726.062865 124.162858L726.062865 124.162858zM726.062865 124.162858"  /></svg>